<svg xmlns="http://www.w3.org/2000/svg" width="251.43" height="35" viewBox="0 0 251.43 35"><rect class="svg__rect" x="0" y="0" width="84.76" height="35" fill="#A7BFC1"/><rect class="svg__rect" x="82.76" y="0" width="168.67000000000002" height="35" fill="#389AD5"/><path class="svg__text" d="M15.69 22L14.22 22L14.22 13.47L16.14 13.47L18.60 20.01L21.06 13.47L22.97 13.47L22.97 22L21.49 22L21.49 19.19L21.64 15.43L19.12 22L18.06 22L15.55 15.43L15.69 19.19L15.69 22ZM27.44 18.00L27.44 18.00L27.44 17.52Q27.44 16.28 27.88 15.32Q28.33 14.37 29.13 13.86Q29.94 13.35 30.98 13.35Q32.02 13.35 32.83 13.85Q33.64 14.35 34.07 15.29Q34.51 16.23 34.52 17.48L34.52 17.48L34.52 17.96Q34.52 19.21 34.09 20.16Q33.65 21.10 32.85 21.61Q32.04 22.12 30.99 22.12L30.99 22.12Q29.96 22.12 29.14 21.61Q28.33 21.10 27.89 20.17Q27.45 19.23 27.44 18.00ZM28.92 17.46L28.92 17.96Q28.92 19.36 29.47 20.13Q30.02 20.90 30.99 20.90L30.99 20.90Q31.98 20.90 32.51 20.15Q33.04 19.40 33.04 17.96L33.04 17.96L33.04 17.51Q33.04 16.09 32.50 15.34Q31.97 14.58 30.98 14.58L30.98 14.58Q30.02 14.58 29.48 15.33Q28.94 16.09 28.92 17.46L28.92 17.46ZM42.10 22L38.98 22L38.98 13.47L41.91 13.47Q43.36 13.47 44.11 14.05Q44.87 14.63 44.87 15.78L44.87 15.78Q44.87 16.36 44.55 16.83Q44.23 17.30 43.63 17.56L43.63 17.56Q44.32 17.75 44.69 18.26Q45.07 18.78 45.07 19.51L45.07 19.51Q45.07 20.71 44.30 21.36Q43.53 22 42.10 22L42.10 22ZM40.47 18.15L40.47 20.82L42.11 20.82Q42.81 20.82 43.20 20.47Q43.60 20.13 43.60 19.51L43.60 19.51Q43.60 18.18 42.24 18.15L42.24 18.15L40.47 18.15ZM40.47 14.66L40.47 17.06L41.92 17.06Q42.61 17.06 43.00 16.75Q43.39 16.43 43.39 15.86L43.39 15.86Q43.39 15.23 43.03 14.95Q42.67 14.66 41.91 14.66L41.91 14.66L40.47 14.66ZM51.11 22L49.63 22L49.63 13.47L51.11 13.47L51.11 22ZM61.27 22L55.92 22L55.92 13.47L57.40 13.47L57.40 20.82L61.27 20.82L61.27 22ZM70.98 22L65.40 22L65.40 13.47L70.94 13.47L70.94 14.66L66.88 14.66L66.88 17.02L70.39 17.02L70.39 18.19L66.88 18.19L66.88 20.82L70.98 20.82L70.98 22Z" fill="#FFFFFF"/><path class="svg__text" d="M96.52 17.80L96.52 17.80Q96.52 16.54 97.12 15.54Q97.72 14.55 98.77 13.99Q99.82 13.43 101.14 13.43L101.14 13.43Q102.29 13.43 103.21 13.84Q104.14 14.25 104.75 15.02L104.75 15.02L103.24 16.39Q102.43 15.40 101.26 15.40L101.26 15.40Q100.57 15.40 100.04 15.70Q99.51 16 99.21 16.54Q98.92 17.09 98.92 17.80L98.92 17.80Q98.92 18.51 99.21 19.05Q99.51 19.60 100.04 19.90Q100.57 20.20 101.26 20.20L101.26 20.20Q102.43 20.20 103.24 19.22L103.24 19.22L104.75 20.58Q104.14 21.35 103.22 21.76Q102.29 22.17 101.14 22.17L101.14 22.17Q99.82 22.17 98.77 21.61Q97.72 21.05 97.12 20.05Q96.52 19.06 96.52 17.80ZM108.86 17.80L108.86 17.80Q108.86 16.55 109.46 15.55Q110.07 14.56 111.13 14.00Q112.19 13.43 113.52 13.43L113.52 13.43Q114.85 13.43 115.92 14.00Q116.98 14.56 117.59 15.55Q118.19 16.55 118.19 17.80L118.19 17.80Q118.19 19.05 117.59 20.04Q116.98 21.04 115.92 21.60Q114.86 22.17 113.52 22.17L113.52 22.17Q112.19 22.17 111.13 21.60Q110.07 21.04 109.46 20.04Q108.86 19.05 108.86 17.80ZM111.26 17.80L111.26 17.80Q111.26 18.51 111.56 19.05Q111.86 19.60 112.38 19.90Q112.89 20.20 113.52 20.20L113.52 20.20Q114.16 20.20 114.68 19.90Q115.19 19.60 115.49 19.05Q115.79 18.51 115.79 17.80L115.79 17.80Q115.79 17.09 115.49 16.54Q115.19 16 114.68 15.70Q114.16 15.40 113.52 15.40L113.52 15.40Q112.89 15.40 112.37 15.70Q111.86 16 111.56 16.54Q111.26 17.09 111.26 17.80ZM125.12 22L122.92 22L122.92 13.60L124.88 13.60L127.83 18.45L130.72 13.60L132.67 13.60L132.69 22L130.51 22L130.49 17.55L128.32 21.17L127.27 21.17L125.12 17.67L125.12 22ZM140.23 22L137.85 22L137.85 13.60L141.70 13.60Q142.83 13.60 143.67 13.98Q144.51 14.35 144.97 15.06Q145.43 15.76 145.43 16.71L145.43 16.71Q145.43 17.66 144.97 18.35Q144.51 19.05 143.67 19.42Q142.83 19.80 141.70 19.80L141.70 19.80L140.23 19.80L140.23 22ZM140.23 15.47L140.23 17.93L141.55 17.93Q142.28 17.93 142.65 17.61Q143.03 17.29 143.03 16.71L143.03 16.71Q143.03 16.12 142.65 15.80Q142.28 15.47 141.55 15.47L141.55 15.47L140.23 15.47ZM151.60 22L149.17 22L152.88 13.60L155.23 13.60L158.94 22L156.47 22L155.81 20.37L152.26 20.37L151.60 22ZM154.04 15.93L152.95 18.61L155.11 18.61L154.04 15.93ZM164.89 15.48L162.30 15.48L162.30 13.60L169.83 13.60L169.83 15.48L167.26 15.48L167.26 22L164.89 22L164.89 15.48ZM176.58 22L174.20 22L174.20 13.60L176.58 13.60L176.58 22ZM186.29 22L181.75 22L181.75 13.60L186.05 13.60Q187.66 13.60 188.50 14.19Q189.34 14.79 189.34 15.79L189.34 15.79Q189.34 16.39 189.04 16.87Q188.75 17.34 188.21 17.62L188.21 17.62Q188.93 17.87 189.34 18.41Q189.74 18.94 189.74 19.70L189.74 19.70Q189.74 20.80 188.86 21.40Q187.97 22 186.29 22L186.29 22ZM184.11 18.58L184.11 20.28L186.10 20.28Q187.35 20.28 187.35 19.43L187.35 19.43Q187.35 18.58 186.10 18.58L186.10 18.58L184.11 18.58ZM184.11 15.31L184.11 16.94L185.73 16.94Q186.94 16.94 186.94 16.12L186.94 16.12Q186.94 15.31 185.73 15.31L185.73 15.31L184.11 15.31ZM196.84 22L194.46 22L194.46 13.60L196.84 13.60L196.84 22ZM208.40 22L202.01 22L202.01 13.60L204.39 13.60L204.39 20.11L208.40 20.11L208.40 22ZM215.20 22L212.82 22L212.82 13.60L215.20 13.60L215.20 22ZM222.16 15.48L219.58 15.48L219.58 13.60L227.10 13.60L227.10 15.48L224.54 15.48L224.54 22L222.16 22L222.16 15.48ZM233.60 18.95L230.40 13.60L232.90 13.60L234.90 16.94L236.89 13.60L239.19 13.60L235.97 18.99L235.97 22L233.60 22L233.60 18.95Z" fill="#FFFFFF" x="95.76"/></svg>